<mxfile host="app.diagrams.net" modified="2023-10-17T09:39:14.854Z" agent="Mozilla/5.0 (Windows NT 10.0; Win64; x64) AppleWebKit/537.36 (KHTML, like Gecko) Chrome/118.0.0.0 Safari/537.36" version="22.0.4" etag="Enn1QTrUf26H417lNk9K" type="github">
  <diagram name="PÃ¡gina-1" id="DNiUKyPCOpWqBh4FZnjA">
    <mxGraphModel>
      <root>
        <mxCell id="0" />
        <mxCell id="1" parent="0" />
      </root>
    </mxGraphModel>
  </diagram>
</mxfile>
